Hanif_Medium_5_0_grf.mot
version=1
nRows=21
nColumns=19
inDegrees=yes
endheader
time	right_ground_force_vx	right_ground_force_vy	right_ground_force_vz	right_ground_force_px	right_ground_force_py	right_ground_force_pz	right_ground_torque_x	right_ground_torque_y	right_ground_torque_z	left_ground_force_vx	left_ground_force_vy	left_ground_force_vz	left_ground_force_px	left_ground_force_py	left_ground_force_pz	left_ground_torque_x	left_ground_torque_y	left_ground_torque_z
4.630000	-4.279380	232.594000	54.610300	0.244069	0.000000	-1.418110	-20.455700	-2.058690	10.420300	-4.317680	186.703000	-45.277000	0.247650	0.000000	-0.988442	16.018000	-0.314770	9.585410
4.635000	-4.561750	233.609000	54.490300	0.244173	0.000000	-1.418280	-20.507700	-2.020170	10.502800	-4.128630	186.570000	-45.458800	0.246964	0.000000	-0.989242	16.151200	-0.266121	9.433960
4.640000	-4.527720	232.940000	54.206200	0.243862	0.000000	-1.418950	-20.290800	-2.062140	10.382400	-3.803230	187.774000	-45.050400	0.246714	0.000000	-0.987897	15.995500	-0.239413	9.411560
4.645000	-4.565340	232.648000	53.989300	0.243274	0.000000	-1.418980	-20.256600	-2.100700	10.214600	-3.475910	187.428000	-45.207500	0.246909	0.000000	-0.987085	15.807600	-0.158168	9.412240
4.650000	-4.609210	231.152000	53.327300	0.243620	0.000000	-1.418490	-20.240700	-2.118220	10.223800	-3.021940	186.439000	-44.638600	0.246090	0.000000	-0.987325	15.761300	-0.142426	9.180590
4.655000	-4.691810	229.291000	53.458300	0.243394	0.000000	-1.417590	-20.282200	-2.203160	10.073600	-2.677020	184.261000	-44.400200	0.246623	0.000000	-0.987598	15.622700	-0.085823	9.164910
4.660000	-4.638840	226.075000	53.036400	0.244637	0.000000	-1.417390	-20.043400	-2.297880	10.204000	-2.578590	182.890000	-43.975500	0.246207	0.000000	-0.987705	15.523600	-0.007359	8.993700
4.665000	-4.607630	224.771000	52.256000	0.243154	0.000000	-1.416510	-20.124500	-2.246510	9.797650	-2.296720	180.084000	-43.467400	0.245065	0.000000	-0.987336	15.215900	-0.062952	8.650180
4.670000	-5.401570	223.222000	51.720200	0.244247	0.000000	-1.418010	-19.648300	-2.440810	9.951710	-2.090940	179.052000	-42.576100	0.245228	0.000000	-0.986489	14.973400	0.013951	8.594360
4.675000	-5.601380	219.785000	50.400400	0.244485	0.000000	-1.417270	-19.509100	-2.481070	9.836220	-1.524240	176.435000	-42.134700	0.243816	0.000000	-0.986506	14.750600	-0.019785	8.206610
4.680000	-5.964970	217.382000	49.771100	0.244097	0.000000	-1.416200	-19.525200	-2.601300	9.615420	-1.774340	173.476000	-41.836700	0.243548	0.000000	-0.987084	14.607200	-0.041006	8.039700
4.685000	-6.969650	215.888000	49.505300	0.245284	0.000000	-1.416390	-19.350300	-2.694040	9.815680	-1.822580	170.338000	-41.290600	0.243323	0.000000	-0.986754	14.286800	0.040920	7.840290
4.690000	-7.022350	215.105000	48.662700	0.244314	0.000000	-1.417250	-19.091000	-2.797260	9.528250	-2.564580	170.888000	-40.794400	0.242986	0.000000	-0.987280	14.430400	0.101887	7.791680
4.695000	-7.086090	212.603000	47.809700	0.244248	0.000000	-1.416360	-19.051900	-2.893490	9.375130	-2.646440	171.473000	-40.671700	0.241806	0.000000	-0.985476	14.172300	-0.020297	7.628470
4.700000	-7.154940	210.850000	46.760100	0.245286	0.000000	-1.416910	-18.778000	-2.976130	9.499480	-2.667950	172.105000	-41.145400	0.243196	0.000000	-0.986295	14.365900	0.042604	7.902030
4.705000	-7.398770	211.997000	45.822200	0.245097	0.000000	-1.416680	-18.923500	-3.091700	9.481580	-2.895940	174.433000	-40.958500	0.241993	0.000000	-0.984931	14.322000	0.115861	7.757360
4.710000	-7.767560	210.127000	45.243000	0.245412	0.000000	-1.415800	-18.939400	-3.131370	9.461240	-2.815890	175.440000	-41.223700	0.241005	0.000000	-0.985278	14.464300	0.089018	7.624730
4.715000	-7.534810	211.641000	44.783800	0.245608	0.000000	-1.415950	-19.041300	-3.175780	9.556220	-2.892330	177.058000	-40.959400	0.241634	0.000000	-0.984682	14.493300	0.053889	7.808360
4.720000	-7.859380	212.797000	44.202700	0.245368	0.000000	-1.414950	-19.355800	-3.257600	9.542600	-2.576010	177.752000	-40.833600	0.240634	0.000000	-0.985106	14.620200	0.095305	7.630620
4.725000	-7.292320	214.573000	43.981800	0.246373	0.000000	-1.415190	-19.468000	-3.233040	9.841520	-2.618440	178.914000	-41.398100	0.240956	0.000000	-0.984184	14.552800	0.011320	7.766490
4.730000	-7.611920	213.141000	43.223100	0.246841	0.000000	-1.414140	-19.558300	-3.333980	9.859950	-2.368520	180.667000	-41.447600	0.241213	0.000000	-0.986278	15.070800	-0.010692	7.885500
